<svg width="168" height="27" viewBox="0 0 168 27" fill="none" xmlns="http://www.w3.org/2000/svg">
<g clip-path="url(#clip0_373_5949)">
<path d="M34.9575 12.7604L40.1794 17.3047C41.185 18.3125 41.7524 19.6795 41.757 21.1118C41.7386 23.9532 39.469 26.2487 36.6597 26.2674H21.9766L23.0698 21.2332H31.3225C32.222 21.2005 32.9278 20.44 32.9001 19.5255V19.5162C32.9462 18.9517 32.6602 18.4198 32.1759 18.1538L27.5629 14.7246C26.2805 13.7262 25.5193 12.1865 25.5009 10.5489C25.5147 7.70749 27.7843 5.40267 30.5982 5.38867H42.615L41.6463 9.80702H35.8155C34.916 9.83968 34.2102 10.6002 34.2379 11.5146V11.5286C34.4316 11.9672 34.6715 12.3778 34.9575 12.7604Z" fill="#C00D0D"/>
<path d="M54.7472 21.9702C53.8477 21.9422 53.1419 21.1771 53.1696 20.2626V20.2533C53.1696 20.006 53.1696 19.8754 53.2941 19.7587L55.4807 9.82093H59.2403L60.2136 5.39325H56.4448L57.6626 -0.00488281H50.4987L49.2901 5.39325H45.4013L44.4326 9.8116H48.3167L45.406 22.4601C45.406 22.7027 45.2814 22.8287 45.2814 23.1926C45.2676 24.8723 46.5961 26.2439 48.2522 26.2626H54.5027L55.4715 21.9702C55.5822 21.8443 54.9825 21.9656 54.738 21.9656" fill="#C00D0D"/>
<path d="M133.038 21.9705C132.139 21.9425 131.433 21.1773 131.461 20.2628V20.2535C131.461 20.0016 131.461 19.8756 131.585 19.7589L133.772 9.82115H137.536L138.505 5.4028H134.745L135.949 0H128.905L127.697 5.39813H123.812L122.844 9.81649H126.728L123.817 22.465C123.817 22.7076 123.693 22.8336 123.693 23.2022C123.674 24.8818 125.007 26.2535 126.663 26.2722H132.914L133.883 21.9798C133.883 21.8538 133.398 21.9798 133.034 21.9798" fill="#C00D0D"/>
<path d="M82.1758 26.2629C82.614 26.053 82.9323 25.6424 83.0246 25.1572V25.0359L86.4243 9.81191H83.6289L84.5976 5.51953H87.3931L87.7621 4.04519L87.8866 3.80258C88.4863 1.6004 90.4837 0.084069 92.7395 0.116728H99.5344L98.8102 3.6766H96.3838C95.6364 3.65328 94.9768 4.16183 94.8061 4.899L94.6816 5.6315H98.3258L97.3571 10.0452H93.5975L90.5622 23.6735C90.2254 25.3065 88.8092 26.4869 87.1624 26.5009L82.1758 26.2583V26.2629Z" fill="#C00D0D"/>
<path d="M68.7009 21.3545C68.258 21.6251 67.7598 21.793 67.2432 21.8443C65.767 21.8117 64.5999 20.5753 64.6368 19.0823C64.6645 17.636 65.8178 16.4742 67.2432 16.4462H72.2206C71.8469 18.5411 70.5507 20.3467 68.7009 21.3545ZM81.2067 8.09474C81.1928 6.6064 80.0027 5.40267 78.5311 5.38867H62.7548L61.786 9.68105H72.7096C73.1662 9.66705 73.5445 10.031 73.5584 10.4929V10.6655L73.074 12.6251H65.4257C61.4862 12.6764 58.3125 15.8957 58.2617 19.8755V20.4913C58.5016 24.2005 61.6292 27.0372 65.3011 26.8739C65.7532 26.8926 66.2007 26.8506 66.6435 26.7479C67.9213 26.5613 69.1299 26.0574 70.1632 25.2736C70.6614 25.9034 71.4225 26.2674 72.2252 26.2534H78.8956C78.1298 25.7308 77.6777 24.8537 77.687 23.9206C77.6547 23.7059 77.7008 23.4867 77.8115 23.3047L81.0867 8.6966C81.1836 8.50998 81.2251 8.30469 81.202 8.09474" fill="#C00D0D"/>
<path d="M16.0255 10.7961L15.5411 12.7556H9.35512L9.71954 11.2813C9.78874 10.4508 10.4715 9.80697 11.2972 9.80697H15.1813C15.638 9.79297 16.0163 10.1569 16.0301 10.6188V10.7961M21.1182 5.39795H6.80414C5.1896 5.39795 3.78725 6.51304 3.40438 8.09935L0 22.95V23.5659C0.0138389 25.0496 1.19937 26.2533 2.67091 26.2673H19.7897L20.8829 21.2331H9.58577C8.68623 21.2004 7.98045 20.4399 8.00813 19.5255C8.00813 19.5255 8.00813 19.5208 8.00813 19.5161V19.1476L8.61704 16.5675H21.8517L23.6692 8.58924V8.09935C23.7568 6.69966 22.7051 5.49126 21.3212 5.40728C21.3212 5.40728 21.3166 5.40728 21.312 5.40728C21.252 5.40262 21.1874 5.40261 21.1274 5.40261" fill="#C00D0D"/>
<path d="M146.997 21.3548C146.554 21.6254 146.056 21.7934 145.54 21.8447C144.068 21.812 142.901 20.5756 142.933 19.0826C142.961 17.6363 144.114 16.4745 145.54 16.4465H150.517C150.139 18.5367 148.847 20.3423 146.997 21.3548ZM156.823 5.39833H141.047L140.078 9.69071H151.011C151.467 9.67671 151.85 10.0406 151.864 10.5025V10.7965L151.38 12.756H143.731C139.796 12.8073 136.618 16.022 136.567 20.0017V20.6176C136.807 24.3268 139.935 27.1635 143.607 27.0002C144.059 27.0189 144.506 26.9769 144.945 26.8742C146.222 26.6876 147.431 26.1837 148.464 25.3999C148.962 26.0297 149.724 26.3937 150.526 26.3797H157.206C156.44 25.8571 155.983 24.98 155.997 24.0422C155.965 23.8276 156.011 23.6083 156.122 23.4263L159.397 8.81823C159.397 8.57562 159.522 8.44965 159.522 8.20237C159.558 6.68138 158.373 5.41699 156.869 5.375H156.851" fill="#C00D0D"/>
<path d="M112.764 10.7961L112.28 12.7557H106.094L106.458 11.2814C106.527 10.4509 107.21 9.81169 108.036 9.80702H111.92C112.377 9.79303 112.759 10.1569 112.769 10.6188V10.6655L112.759 10.7961M117.861 5.38867H103.543C101.928 5.38867 100.526 6.50376 100.143 8.09007L96.7432 23.0714V23.6873C96.757 25.1709 97.9425 26.3747 99.4141 26.3887H116.533L117.626 21.3545H106.329C105.429 21.3265 104.724 20.5613 104.751 19.6468V19.2736L105.36 16.6935H118.835L120.652 8.71527V8.22537C120.597 6.69038 119.384 5.46332 117.866 5.398" fill="#C00D0D"/>
<path d="M164.596 8.71075H165.08L165.929 10.1851H166.538L165.569 8.71075C165.989 8.7574 166.367 8.4588 166.423 8.03423C166.427 7.97358 166.427 7.91293 166.423 7.85227C166.423 7.11977 166.054 6.87249 165.214 6.87249H164.005V10.0684H164.49L164.601 8.71075H164.596ZM164.596 8.22086V7.24107H165.205C165.569 7.24107 165.929 7.24107 165.929 7.73097C165.929 8.22086 165.565 8.22086 165.205 8.22086H164.596ZM167.996 8.34216C168.056 6.77918 166.852 5.4588 165.306 5.39815H165.08C163.493 5.37949 162.193 6.66254 162.169 8.26751V8.34683C162.105 9.90515 163.304 11.2255 164.845 11.2908C164.85 11.2908 164.859 11.2908 164.863 11.2908H165.09C166.593 11.3935 167.899 10.2457 168 8.72008C168 8.59411 168 8.46813 167.991 8.34216M167.382 8.34216C167.428 9.62988 166.432 10.7123 165.159 10.759C163.886 10.8056 162.815 9.79784 162.769 8.51013V8.34216C162.677 7.08711 163.609 5.99069 164.85 5.89271C164.85 5.89271 164.859 5.89271 164.863 5.89271C164.933 5.88804 165.006 5.88804 165.076 5.88804C166.363 5.90204 167.396 6.9658 167.387 8.26751V8.34216" fill="#C00D0D"/>
</g>
<defs>
<clipPath id="clip0_373_5949">
<rect width="168" height="27" fill="white"/>
</clipPath>
</defs>
</svg>
